<svg xmlns="http://www.w3.org/2000/svg" viewBox="0 0 73.86 101.72"><g id="Layer_2" data-name="Layer 2"><g id="Layer_1-2" data-name="Layer 1"><path d="M16.88,10a5.41,5.41,0,0,1,0-8.2A7.21,7.21,0,0,1,22,0h36.8A7.25,7.25,0,0,1,64,1.76,5.41,5.41,0,0,1,64,10a7.25,7.25,0,0,1-5.15,1.76H22A7.21,7.21,0,0,1,16.88,10Zm-15,0a5.41,5.41,0,0,1,0-8.2A7.21,7.21,0,0,1,7,0h36.8A7.25,7.25,0,0,1,49,1.76,5.41,5.41,0,0,1,49,10a7.25,7.25,0,0,1-5.15,1.76H7A7.21,7.21,0,0,1,1.88,10Zm23,90a5.43,5.43,0,0,1,0-8.2A7.25,7.25,0,0,1,30,90h36.8A7.25,7.25,0,0,1,72,91.76a5.41,5.41,0,0,1,0,8.2,7.25,7.25,0,0,1-5.15,1.76H30A7.25,7.25,0,0,1,24.87,100ZM31.7,25A5.86,5.86,0,0,1,36,15h8.9a5.84,5.84,0,0,1,4.28,10,5.71,5.71,0,0,1-4.28,1.76H36A5.71,5.71,0,0,1,31.7,25Zm-4,15A5.86,5.86,0,0,1,32,30h8.9a5.86,5.86,0,1,1,0,11.72H32A5.71,5.71,0,0,1,27.7,40Zm4,15A5.86,5.86,0,0,1,36,45h8.9a5.86,5.86,0,1,1,0,11.72H36A5.71,5.71,0,0,1,31.7,55Zm4,15A5.86,5.86,0,0,1,40,60h8.9a5.86,5.86,0,1,1,0,11.72H40A5.71,5.71,0,0,1,35.7,70Zm-4,15A5.86,5.86,0,0,1,36,75h8.9a5.86,5.86,0,1,1,0,11.72H36A5.71,5.71,0,0,1,31.7,85Z"/></g></g></svg>