<svg xmlns="http://www.w3.org/2000/svg" viewBox="0 0 89.86 101.72"><g id="Layer_2" data-name="Layer 2"><g id="Layer_1-2" data-name="Layer 1"><path d="M12.2,85a5.86,5.86,0,0,1,4.28-10h8.9a5.86,5.86,0,1,1,0,11.72h-8.9A5.71,5.71,0,0,1,12.2,85Zm0,15a5.86,5.86,0,0,1,4.28-10h8.9a5.86,5.86,0,1,1,0,11.72h-8.9A5.71,5.71,0,0,1,12.2,100Zm-9,0a5.79,5.79,0,0,1,0-8.2A5.71,5.71,0,0,1,7.48,90h8.9a5.86,5.86,0,1,1,0,11.72H7.48A5.71,5.71,0,0,1,3.2,100ZM19.7,55A5.86,5.86,0,0,1,24,45h8.9a5.86,5.86,0,1,1,0,11.72H24A5.71,5.71,0,0,1,19.7,55Zm.18,15a5.41,5.41,0,0,1,0-8.2A7.21,7.21,0,0,1,25,60h36.8A7.25,7.25,0,0,1,67,61.76,5.41,5.41,0,0,1,67,70a7.25,7.25,0,0,1-5.15,1.76H25A7.21,7.21,0,0,1,19.88,70Zm21,0a5.41,5.41,0,0,1,0-8.2A7.21,7.21,0,0,1,46,60h36.8A7.25,7.25,0,0,1,88,61.76,5.41,5.41,0,0,1,88,70a7.25,7.25,0,0,1-5.15,1.76H46A7.21,7.21,0,0,1,40.88,70Zm-39,0a5.41,5.41,0,0,1,0-8.2A7.21,7.21,0,0,1,7,60h36.8A7.25,7.25,0,0,1,49,61.76,5.41,5.41,0,0,1,49,70a7.25,7.25,0,0,1-5.15,1.76H7A7.21,7.21,0,0,1,1.88,70Zm25.5-45a5.41,5.41,0,0,1,0-8.2A7.21,7.21,0,0,1,32.53,15h21.8a7.25,7.25,0,0,1,5.15,1.76,5.41,5.41,0,0,1,0,8.2,7.25,7.25,0,0,1-5.15,1.76H32.53A7.21,7.21,0,0,1,27.38,25Zm0,15a5.41,5.41,0,0,1,0-8.2A7.21,7.21,0,0,1,32.53,30h21.8a7.25,7.25,0,0,1,5.15,1.76,5.41,5.41,0,0,1,0,8.2,7.25,7.25,0,0,1-5.15,1.76H32.53A7.21,7.21,0,0,1,27.38,40ZM34.7,10a5.79,5.79,0,0,1,0-8.2A5.71,5.71,0,0,1,39,0h8.9a5.71,5.71,0,0,1,4.28,1.76,5.79,5.79,0,0,1,0,8.2,5.71,5.71,0,0,1-4.28,1.76H39A5.71,5.71,0,0,1,34.7,10Zm15,45A5.86,5.86,0,0,1,54,45h8.9a5.86,5.86,0,1,1,0,11.72H54A5.71,5.71,0,0,1,49.7,55Zm10,0A5.86,5.86,0,0,1,64,45h8.9a5.86,5.86,0,1,1,0,11.72H64A5.71,5.71,0,0,1,59.7,55ZM57.2,85a5.86,5.86,0,0,1,4.28-10h8.9a5.86,5.86,0,1,1,0,11.72h-8.9A5.71,5.71,0,0,1,57.2,85Zm0,15a5.86,5.86,0,0,1,4.28-10h8.9a5.86,5.86,0,1,1,0,11.72h-8.9A5.71,5.71,0,0,1,57.2,100Z"/></g></g></svg>