<svg xmlns="http://www.w3.org/2000/svg" viewBox="0 0 68.36 101.72"><g id="Layer_2" data-name="Layer 2"><g id="Layer_1-2" data-name="Layer 1"><path d="M1.7,40a5.79,5.79,0,0,1,0-8.2A5.71,5.71,0,0,1,6,30h8.9a5.86,5.86,0,1,1,0,11.72H6A5.71,5.71,0,0,1,1.7,40Zm3,15a5.79,5.79,0,0,1,0-8.2A5.71,5.71,0,0,1,9,45h8.9a5.86,5.86,0,1,1,0,11.72H9A5.71,5.71,0,0,1,4.7,55Zm6,15A5.86,5.86,0,0,1,15,60h8.9a5.86,5.86,0,1,1,0,11.72H15A5.71,5.71,0,0,1,10.7,70Zm1.5-45a5.86,5.86,0,0,1,4.28-10h8.9a5.84,5.84,0,0,1,4.28,10,5.71,5.71,0,0,1-4.28,1.76h-8.9A5.71,5.71,0,0,1,12.2,25Zm0,60a5.86,5.86,0,0,1,4.28-10h8.9a5.86,5.86,0,1,1,0,11.72h-8.9A5.71,5.71,0,0,1,12.2,85Zm1.5-75a5.79,5.79,0,0,1,0-8.2A5.71,5.71,0,0,1,18,0h16.4a5.71,5.71,0,0,1,4.28,1.76,5.79,5.79,0,0,1,0,8.2,5.71,5.71,0,0,1-4.28,1.76H18A5.71,5.71,0,0,1,13.7,10Zm6,90A5.86,5.86,0,0,1,24,90h16.4a5.86,5.86,0,1,1,0,11.72H24A5.71,5.71,0,0,1,19.7,100Zm15-75A5.86,5.86,0,0,1,39,15h8.9a5.84,5.84,0,0,1,4.28,10,5.71,5.71,0,0,1-4.28,1.76H39A5.71,5.71,0,0,1,34.7,25Zm7,61A5.86,5.86,0,0,1,46,76h8.9a5.86,5.86,0,1,1,0,11.72H46A5.71,5.71,0,0,1,41.7,86Zm.5-46a5.86,5.86,0,0,1,4.28-10h8.9a5.86,5.86,0,1,1,0,11.72h-8.9A5.71,5.71,0,0,1,42.2,40Zm7,15a5.86,5.86,0,0,1,4.28-10h8.9a5.86,5.86,0,1,1,0,11.72h-8.9A5.71,5.71,0,0,1,49.2,55Zm-7,15a5.86,5.86,0,0,1,4.28-10h8.9a5.86,5.86,0,1,1,0,11.72h-8.9A5.71,5.71,0,0,1,42.2,70Z"/></g></g></svg>