<svg xmlns="http://www.w3.org/2000/svg" viewBox="0 0 74.36 101.72"><g id="Layer_2" data-name="Layer 2"><g id="Layer_1-2" data-name="Layer 1"><path d="M17.7,10a5.79,5.79,0,0,1,0-8.2A5.71,5.71,0,0,1,22,0h8.9a5.71,5.71,0,0,1,4.28,1.76,5.79,5.79,0,0,1,0,8.2,5.71,5.71,0,0,1-4.28,1.76H22A5.71,5.71,0,0,1,17.7,10Zm-8,15A5.86,5.86,0,0,1,14,15h16.4a5.84,5.84,0,0,1,4.28,10,5.71,5.71,0,0,1-4.28,1.76H14A5.71,5.71,0,0,1,9.7,25Zm.18,15a5.41,5.41,0,0,1,0-8.2A7.21,7.21,0,0,1,15,30h21.8A7.25,7.25,0,0,1,42,31.76,5.41,5.41,0,0,1,42,40a7.25,7.25,0,0,1-5.15,1.76H15A7.21,7.21,0,0,1,9.88,40Zm-8,0a5.41,5.41,0,0,1,0-8.2A7.21,7.21,0,0,1,7,30h21.8A7.25,7.25,0,0,1,34,31.76,5.41,5.41,0,0,1,34,40a7.25,7.25,0,0,1-5.15,1.76H7A7.21,7.21,0,0,1,1.88,40ZM9.7,55A5.86,5.86,0,0,1,14,45h8.9a5.86,5.86,0,1,1,0,11.72H14A5.71,5.71,0,0,1,9.7,55Zm0,15A5.86,5.86,0,0,1,14,60h8.9a5.86,5.86,0,1,1,0,11.72H14A5.71,5.71,0,0,1,9.7,70Zm0,15A5.86,5.86,0,0,1,14,75h8.9a5.86,5.86,0,1,1,0,11.72H14A5.71,5.71,0,0,1,9.7,85Zm-6,0a5.79,5.79,0,0,1,0-8.2A5.71,5.71,0,0,1,8,75h8.9a5.86,5.86,0,1,1,0,11.72H8A5.71,5.71,0,0,1,3.7,85Zm6,15A5.86,5.86,0,0,1,14,90h8.9a5.86,5.86,0,1,1,0,11.72H14A5.71,5.71,0,0,1,9.7,100ZM32.38,55a5.41,5.41,0,0,1,0-8.2A7.21,7.21,0,0,1,37.53,45h21.8a7.25,7.25,0,0,1,5.15,1.76,5.41,5.41,0,0,1,0,8.2,7.25,7.25,0,0,1-5.15,1.76H37.53A7.21,7.21,0,0,1,32.38,55Zm8,0a5.41,5.41,0,0,1,0-8.2A7.21,7.21,0,0,1,45.53,45h21.8a7.25,7.25,0,0,1,5.15,1.76,5.41,5.41,0,0,1,0,8.2,7.25,7.25,0,0,1-5.15,1.76H45.53A7.21,7.21,0,0,1,40.38,55ZM39.7,70A5.86,5.86,0,0,1,44,60h16.4a5.86,5.86,0,1,1,0,11.72H44A5.71,5.71,0,0,1,39.7,70ZM52.2,10a5.79,5.79,0,0,1,0-8.2A5.71,5.71,0,0,1,56.48,0h8.9a5.71,5.71,0,0,1,4.28,1.76,5.79,5.79,0,0,1,0,8.2,5.71,5.71,0,0,1-4.28,1.76h-8.9A5.71,5.71,0,0,1,52.2,10Zm-5,15a5.86,5.86,0,0,1,4.28-10h8.9a5.84,5.84,0,0,1,4.28,10,5.71,5.71,0,0,1-4.28,1.76h-8.9A5.71,5.71,0,0,1,47.2,25Zm0,15a5.86,5.86,0,0,1,4.28-10h8.9a5.86,5.86,0,1,1,0,11.72h-8.9A5.71,5.71,0,0,1,47.2,40Zm-6,45a5.86,5.86,0,0,1,4.28-10h8.9a5.86,5.86,0,1,1,0,11.72h-8.9A5.71,5.71,0,0,1,41.2,85Zm6,15a5.86,5.86,0,0,1,4.28-10h8.9a5.86,5.86,0,1,1,0,11.72h-8.9A5.71,5.71,0,0,1,47.2,100Z"/></g></g></svg>