<svg xmlns="http://www.w3.org/2000/svg" viewBox="0 0 91.36 101.72"><g id="Layer_2" data-name="Layer 2"><g id="Layer_1-2" data-name="Layer 1"><path d="M14.7,10a5.79,5.79,0,0,1,0-8.2A5.71,5.71,0,0,1,19,0h8.9a5.71,5.71,0,0,1,4.28,1.76,5.79,5.79,0,0,1,0,8.2,5.71,5.71,0,0,1-4.28,1.76H19A5.71,5.71,0,0,1,14.7,10Zm-10,0a5.79,5.79,0,0,1,0-8.2A5.71,5.71,0,0,1,9,0h8.9a5.71,5.71,0,0,1,4.28,1.76,5.79,5.79,0,0,1,0,8.2,5.71,5.71,0,0,1-4.28,1.76H9A5.71,5.71,0,0,1,4.7,10Zm10,15A5.86,5.86,0,0,1,19,15h16.4a5.84,5.84,0,0,1,4.28,10,5.71,5.71,0,0,1-4.28,1.76H19A5.71,5.71,0,0,1,14.7,25Zm.18,15a5.41,5.41,0,0,1,0-8.2A7.21,7.21,0,0,1,20,30h21.8A7.25,7.25,0,0,1,47,31.76,5.41,5.41,0,0,1,47,40a7.25,7.25,0,0,1-5.15,1.76H20A7.21,7.21,0,0,1,14.88,40ZM14.7,55A5.86,5.86,0,0,1,19,45h8.9a5.86,5.86,0,1,1,0,11.72H19A5.71,5.71,0,0,1,14.7,55Zm0,15A5.86,5.86,0,0,1,19,60h8.9a5.86,5.86,0,1,1,0,11.72H19A5.71,5.71,0,0,1,14.7,70Zm0,15A5.86,5.86,0,0,1,19,75h8.9a5.86,5.86,0,1,1,0,11.72H19A5.71,5.71,0,0,1,14.7,85Zm0,15A5.86,5.86,0,0,1,19,90h8.9a5.86,5.86,0,1,1,0,11.72H19A5.71,5.71,0,0,1,14.7,100Zm-13,0a5.79,5.79,0,0,1,0-8.2A5.71,5.71,0,0,1,6,90h8.9a5.86,5.86,0,1,1,0,11.72H6A5.71,5.71,0,0,1,1.7,100ZM37.38,55a5.41,5.41,0,0,1,0-8.2A7.21,7.21,0,0,1,42.53,45h21.8a7.25,7.25,0,0,1,5.15,1.76,5.41,5.41,0,0,1,0,8.2,7.25,7.25,0,0,1-5.15,1.76H42.53A7.21,7.21,0,0,1,37.38,55Zm20,0a5.41,5.41,0,0,1,0-8.2A7.21,7.21,0,0,1,62.53,45h21.8a7.25,7.25,0,0,1,5.15,1.76,5.41,5.41,0,0,1,0,8.2,7.25,7.25,0,0,1-5.15,1.76H62.53A7.21,7.21,0,0,1,57.38,55ZM44.7,70A5.86,5.86,0,0,1,49,60h16.4a5.86,5.86,0,1,1,0,11.72H49A5.71,5.71,0,0,1,44.7,70Zm7.5-60a5.79,5.79,0,0,1,0-8.2A5.71,5.71,0,0,1,56.48,0h8.9a5.71,5.71,0,0,1,4.28,1.76,5.79,5.79,0,0,1,0,8.2,5.71,5.71,0,0,1-4.28,1.76h-8.9A5.71,5.71,0,0,1,52.2,10Zm0,15a5.86,5.86,0,0,1,4.28-10h8.9a5.84,5.84,0,0,1,4.28,10,5.71,5.71,0,0,1-4.28,1.76h-8.9A5.71,5.71,0,0,1,52.2,25Zm8,0a5.86,5.86,0,0,1,4.28-10h8.9a5.84,5.84,0,0,1,4.28,10,5.71,5.71,0,0,1-4.28,1.76h-8.9A5.71,5.71,0,0,1,60.2,25Zm-8,15a5.86,5.86,0,0,1,4.28-10h8.9a5.86,5.86,0,1,1,0,11.72h-8.9A5.71,5.71,0,0,1,52.2,40Zm0,45a5.86,5.86,0,0,1,4.28-10h8.9a5.86,5.86,0,1,1,0,11.72h-8.9A5.71,5.71,0,0,1,52.2,85Zm0,15a5.86,5.86,0,0,1,4.28-10h8.9a5.86,5.86,0,1,1,0,11.72h-8.9A5.71,5.71,0,0,1,52.2,100Zm-8,0a5.86,5.86,0,0,1,4.28-10h8.9a5.86,5.86,0,1,1,0,11.72h-8.9A5.71,5.71,0,0,1,44.2,100Z"/></g></g></svg>