<svg xmlns="http://www.w3.org/2000/svg" viewBox="0 0 75.86 101.72"><g id="Layer_2" data-name="Layer 2"><g id="Layer_1-2" data-name="Layer 1"><path d="M9.38,10a5.41,5.41,0,0,1,0-8.2A7.21,7.21,0,0,1,14.53,0h44.3A7.25,7.25,0,0,1,64,1.76,5.41,5.41,0,0,1,64,10a7.25,7.25,0,0,1-5.15,1.76H14.53A7.21,7.21,0,0,1,9.38,10Zm10,90a5.41,5.41,0,0,1,0-8.2A7.21,7.21,0,0,1,24.53,90h44.3A7.25,7.25,0,0,1,74,91.76a5.41,5.41,0,0,1,0,8.2,7.25,7.25,0,0,1-5.15,1.76H24.53A7.21,7.21,0,0,1,19.38,100ZM16.7,25A5.86,5.86,0,0,1,21,15h8.9a5.84,5.84,0,0,1,4.28,10,5.71,5.71,0,0,1-4.28,1.76H21A5.71,5.71,0,0,1,16.7,25Zm-4,15A5.86,5.86,0,0,1,17,30h8.9a5.86,5.86,0,1,1,0,11.72H17A5.71,5.71,0,0,1,12.7,40Zm4.18,15a5.41,5.41,0,0,1,0-8.2A7.21,7.21,0,0,1,22,45h21.8A7.25,7.25,0,0,1,49,46.76,5.41,5.41,0,0,1,49,55a7.25,7.25,0,0,1-5.15,1.76H22A7.21,7.21,0,0,1,16.88,55Zm-15,0a5.41,5.41,0,0,1,0-8.2A7.21,7.21,0,0,1,7,45h21.8A7.25,7.25,0,0,1,34,46.76,5.41,5.41,0,0,1,34,55a7.25,7.25,0,0,1-5.15,1.76H7A7.21,7.21,0,0,1,1.88,55ZM16.7,70A5.86,5.86,0,0,1,21,60h8.9a5.86,5.86,0,1,1,0,11.72H21A5.71,5.71,0,0,1,16.7,70Zm0,15A5.86,5.86,0,0,1,21,75h8.9a5.86,5.86,0,1,1,0,11.72H21A5.71,5.71,0,0,1,16.7,85Zm30-60A5.86,5.86,0,0,1,51,15h8.9a5.84,5.84,0,0,1,4.28,10,5.71,5.71,0,0,1-4.28,1.76H51A5.71,5.71,0,0,1,46.7,25Zm10,0A5.86,5.86,0,0,1,61,15h8.9a5.84,5.84,0,0,1,4.28,10,5.71,5.71,0,0,1-4.28,1.76H61A5.71,5.71,0,0,1,56.7,25Zm-10,60A5.86,5.86,0,0,1,51,75h8.9a5.86,5.86,0,1,1,0,11.72H51A5.71,5.71,0,0,1,46.7,85Zm-6,0A5.86,5.86,0,0,1,45,75h8.9a5.86,5.86,0,1,1,0,11.72H45A5.71,5.71,0,0,1,40.7,85Z"/></g></g></svg>