<svg xmlns="http://www.w3.org/2000/svg" viewBox="0 0 82.86 101.72"><g id="Layer_2" data-name="Layer 2"><g id="Layer_1-2" data-name="Layer 1"><path d="M33.88,10a5.41,5.41,0,0,1,0-8.2A7.21,7.21,0,0,1,39,0h36.8A7.25,7.25,0,0,1,81,1.76,5.41,5.41,0,0,1,81,10a7.25,7.25,0,0,1-5.15,1.76H39A7.21,7.21,0,0,1,33.88,10Zm-32,0a5.41,5.41,0,0,1,0-8.2A7.21,7.21,0,0,1,7,0h36.8A7.25,7.25,0,0,1,49,1.76,5.41,5.41,0,0,1,49,10a7.25,7.25,0,0,1-5.15,1.76H7A7.21,7.21,0,0,1,1.88,10ZM25.35,25A6.54,6.54,0,0,1,24,20.86a6.54,6.54,0,0,1,1.35-4.1A4.07,4.07,0,0,1,28.69,15h4A4.07,4.07,0,0,1,36,16.76a6.54,6.54,0,0,1,1.35,4.1A6.54,6.54,0,0,1,36,25a4.07,4.07,0,0,1-3.34,1.76h-4A4.07,4.07,0,0,1,25.35,25Zm-7,0A6.54,6.54,0,0,1,17,20.86a6.54,6.54,0,0,1,1.35-4.1A4.07,4.07,0,0,1,21.69,15h4A4.07,4.07,0,0,1,29,16.76a6.54,6.54,0,0,1,1.35,4.1A6.54,6.54,0,0,1,29,25a4.07,4.07,0,0,1-3.34,1.76h-4A4.07,4.07,0,0,1,18.35,25Zm2,0A6.54,6.54,0,0,1,19,20.86a6.54,6.54,0,0,1,1.35-4.1A4.07,4.07,0,0,1,23.69,15h4A4.07,4.07,0,0,1,31,16.76a6.54,6.54,0,0,1,1.35,4.1A6.54,6.54,0,0,1,31,25a4.07,4.07,0,0,1-3.34,1.76h-4A4.07,4.07,0,0,1,20.35,25Zm13,75a5.41,5.41,0,0,1,0-8.2A7.21,7.21,0,0,1,38.53,90h21.8a7.25,7.25,0,0,1,5.15,1.76,5.41,5.41,0,0,1,0,8.2,7.25,7.25,0,0,1-5.15,1.76H38.53A7.21,7.21,0,0,1,33.38,100ZM40.7,25A5.86,5.86,0,0,1,45,15h8.9a5.84,5.84,0,0,1,4.28,10,5.71,5.71,0,0,1-4.28,1.76H45A5.71,5.71,0,0,1,40.7,25Zm0,15A5.86,5.86,0,0,1,45,30h8.9a5.86,5.86,0,1,1,0,11.72H45A5.71,5.71,0,0,1,40.7,40Zm0,15A5.86,5.86,0,0,1,45,45h8.9a5.86,5.86,0,1,1,0,11.72H45A5.71,5.71,0,0,1,40.7,55Zm-7,0A5.86,5.86,0,0,1,38,45h8.9a5.86,5.86,0,1,1,0,11.72H38A5.71,5.71,0,0,1,33.7,55Zm10,15A5.86,5.86,0,0,1,48,60h8.9a5.86,5.86,0,1,1,0,11.72H48A5.71,5.71,0,0,1,43.7,70Zm-3,15A5.86,5.86,0,0,1,45,75h8.9a5.86,5.86,0,1,1,0,11.72H45A5.71,5.71,0,0,1,40.7,85ZM62.85,25a6.54,6.54,0,0,1-1.35-4.1,6.54,6.54,0,0,1,1.35-4.1A4.07,4.07,0,0,1,66.19,15h4a4.07,4.07,0,0,1,3.34,1.76,6.54,6.54,0,0,1,1.35,4.1A6.54,6.54,0,0,1,73.51,25a4.07,4.07,0,0,1-3.34,1.76h-4A4.07,4.07,0,0,1,62.85,25Z"/></g></g></svg>