<svg xmlns="http://www.w3.org/2000/svg" viewBox="0 0 70.36 101.72"><g id="Layer_2" data-name="Layer 2"><g id="Layer_1-2" data-name="Layer 1"><path d="M7.7,40A5.86,5.86,0,0,1,12,30h8.9a5.86,5.86,0,1,1,0,11.72H12A5.71,5.71,0,0,1,7.7,40Zm0,15A5.86,5.86,0,0,1,12,45h8.9a5.86,5.86,0,1,1,0,11.72H12A5.71,5.71,0,0,1,7.7,55Zm-6,15a5.79,5.79,0,0,1,0-8.2A5.71,5.71,0,0,1,6,60h8.9a5.86,5.86,0,1,1,0,11.72H6A5.71,5.71,0,0,1,1.7,70ZM15.2,25a5.86,5.86,0,0,1,4.28-10h8.9a5.84,5.84,0,0,1,4.28,10,5.71,5.71,0,0,1-4.28,1.76h-8.9A5.71,5.71,0,0,1,15.2,25Zm-5,0a5.86,5.86,0,0,1,4.28-10h8.9a5.84,5.84,0,0,1,4.28,10,5.71,5.71,0,0,1-4.28,1.76h-8.9A5.71,5.71,0,0,1,10.2,25Zm5,60a5.86,5.86,0,0,1,4.28-10h8.9a5.86,5.86,0,1,1,0,11.72h-8.9A5.71,5.71,0,0,1,15.2,85Zm8,0a5.86,5.86,0,0,1,4.28-10h8.9a5.86,5.86,0,1,1,0,11.72h-8.9A5.71,5.71,0,0,1,23.2,85Zm5.68-75a5.41,5.41,0,0,1,0-8.2A7.21,7.21,0,0,1,34,0h21.8A7.25,7.25,0,0,1,61,1.76,5.41,5.41,0,0,1,61,10a7.25,7.25,0,0,1-5.15,1.76H34A7.21,7.21,0,0,1,28.88,10Zm5,90a5.41,5.41,0,0,1,0-8.2A7.21,7.21,0,0,1,39,90h21.8A7.25,7.25,0,0,1,66,91.76a5.41,5.41,0,0,1,0,8.2,7.25,7.25,0,0,1-5.15,1.76H39A7.21,7.21,0,0,1,33.88,100ZM45.2,25a5.86,5.86,0,0,1,4.28-10h8.9a5.84,5.84,0,0,1,4.28,10,5.71,5.71,0,0,1-4.28,1.76h-8.9A5.71,5.71,0,0,1,45.2,25Zm0,60a5.86,5.86,0,0,1,4.28-10h8.9a5.86,5.86,0,1,1,0,11.72h-8.9A5.71,5.71,0,0,1,45.2,85Zm6,0a5.86,5.86,0,0,1,4.28-10h8.9a5.86,5.86,0,1,1,0,11.72h-8.9A5.71,5.71,0,0,1,51.2,85Z"/></g></g></svg>