<svg xmlns="http://www.w3.org/2000/svg" viewBox="0 0 64.36 101.72"><g id="Layer_2" data-name="Layer 2"><g id="Layer_1-2" data-name="Layer 1"><path d="M1.88,10a5.41,5.41,0,0,1,0-8.2A7.21,7.21,0,0,1,7,0h29.3a7.25,7.25,0,0,1,5.15,1.76,5.41,5.41,0,0,1,0,8.2,7.25,7.25,0,0,1-5.15,1.76H7A7.21,7.21,0,0,1,1.88,10Zm14,90a5.41,5.41,0,0,1,0-8.2A7.21,7.21,0,0,1,21,90h29.3a7.25,7.25,0,0,1,5.15,1.76,5.41,5.41,0,0,1,0,8.2,7.25,7.25,0,0,1-5.15,1.76H21A7.21,7.21,0,0,1,15.88,100ZM4.2,25a5.79,5.79,0,0,1,0-8.2A5.71,5.71,0,0,1,8.48,15h8.9a5.84,5.84,0,0,1,4.28,10,5.71,5.71,0,0,1-4.28,1.76H8.48A5.71,5.71,0,0,1,4.2,25Zm5,15a5.86,5.86,0,0,1,4.28-10h8.9a5.86,5.86,0,1,1,0,11.72h-8.9A5.71,5.71,0,0,1,9.2,40Zm4,15a5.86,5.86,0,0,1,4.28-10h8.9a5.86,5.86,0,1,1,0,11.72h-8.9A5.71,5.71,0,0,1,13.2,55Zm-4,15a5.86,5.86,0,0,1,4.28-10h8.9a5.86,5.86,0,1,1,0,11.72h-8.9A5.71,5.71,0,0,1,9.2,70Zm0,15a5.86,5.86,0,0,1,4.28-10h8.9a5.86,5.86,0,1,1,0,11.72h-8.9A5.71,5.71,0,0,1,9.2,85Zm-6,0a5.79,5.79,0,0,1,0-8.2A5.71,5.71,0,0,1,7.48,75h8.9a5.86,5.86,0,1,1,0,11.72H7.48A5.71,5.71,0,0,1,3.2,85ZM31.7,25A5.86,5.86,0,0,1,36,15h8.9a5.84,5.84,0,0,1,4.28,10,5.71,5.71,0,0,1-4.28,1.76H36A5.71,5.71,0,0,1,31.7,25Zm0,60A5.86,5.86,0,0,1,36,75h8.9a5.86,5.86,0,1,1,0,11.72H36A5.71,5.71,0,0,1,31.7,85Zm7.5-45a5.86,5.86,0,0,1,4.28-10h8.9a5.86,5.86,0,1,1,0,11.72h-8.9A5.71,5.71,0,0,1,39.2,40Zm0,15a5.86,5.86,0,0,1,4.28-10h8.9a5.86,5.86,0,1,1,0,11.72h-8.9A5.71,5.71,0,0,1,39.2,55Zm0,15a5.86,5.86,0,0,1,4.28-10h8.9a5.86,5.86,0,1,1,0,11.72h-8.9A5.71,5.71,0,0,1,39.2,70Zm6,0a5.86,5.86,0,0,1,4.28-10h8.9a5.86,5.86,0,1,1,0,11.72h-8.9A5.71,5.71,0,0,1,45.2,70Z"/></g></g></svg>