<svg xmlns="http://www.w3.org/2000/svg" viewBox="0 0 85.86 101.72"><g id="Layer_2" data-name="Layer 2"><g id="Layer_1-2" data-name="Layer 1"><path d="M16.88,10a5.41,5.41,0,0,1,0-8.2A7.21,7.21,0,0,1,22,0h36.8A7.25,7.25,0,0,1,64,1.76,5.41,5.41,0,0,1,64,10a7.25,7.25,0,0,1-5.15,1.76H22A7.21,7.21,0,0,1,16.88,10Zm20,0a5.41,5.41,0,0,1,0-8.2A7.21,7.21,0,0,1,42,0h36.8A7.25,7.25,0,0,1,84,1.76,5.41,5.41,0,0,1,84,10a7.25,7.25,0,0,1-5.15,1.76H42A7.21,7.21,0,0,1,36.88,10Zm-20,90a5.41,5.41,0,0,1,0-8.2A7.21,7.21,0,0,1,22,90h36.8A7.25,7.25,0,0,1,64,91.76a5.41,5.41,0,0,1,0,8.2,7.25,7.25,0,0,1-5.15,1.76H22A7.21,7.21,0,0,1,16.88,100Zm-15,0a5.41,5.41,0,0,1,0-8.2A7.21,7.21,0,0,1,7,90h36.8A7.25,7.25,0,0,1,49,91.76a5.41,5.41,0,0,1,0,8.2,7.25,7.25,0,0,1-5.15,1.76H7A7.21,7.21,0,0,1,1.88,100ZM41.7,25A5.86,5.86,0,0,1,46,15h8.9a5.84,5.84,0,0,1,4.28,10,5.71,5.71,0,0,1-4.28,1.76H46A5.71,5.71,0,0,1,41.7,25Zm-10,15A5.86,5.86,0,0,1,36,30h8.9a5.86,5.86,0,1,1,0,11.72H36A5.71,5.71,0,0,1,31.7,40Zm0,15A5.86,5.86,0,0,1,36,45h8.9a5.86,5.86,0,1,1,0,11.72H36A5.71,5.71,0,0,1,31.7,55Zm-9,0A5.86,5.86,0,0,1,27,45h8.9a5.86,5.86,0,1,1,0,11.72H27A5.71,5.71,0,0,1,22.7,55Zm9,15A5.86,5.86,0,0,1,36,60h8.9a5.86,5.86,0,1,1,0,11.72H36A5.71,5.71,0,0,1,31.7,70Zm0,15A5.86,5.86,0,0,1,36,75h8.9a5.86,5.86,0,1,1,0,11.72H36A5.71,5.71,0,0,1,31.7,85Zm-3,0A5.86,5.86,0,0,1,33,75h8.9a5.86,5.86,0,1,1,0,11.72H33A5.71,5.71,0,0,1,28.7,85Z"/></g></g></svg>