<svg xmlns="http://www.w3.org/2000/svg" viewBox="0 0 89.36 101.72"><g id="Layer_2" data-name="Layer 2"><g id="Layer_1-2" data-name="Layer 1"><path d="M22.88,10a5.41,5.41,0,0,1,0-8.2A7.21,7.21,0,0,1,28,0h44.3a7.25,7.25,0,0,1,5.15,1.76,5.41,5.41,0,0,1,0,8.2,7.25,7.25,0,0,1-5.15,1.76H28A7.21,7.21,0,0,1,22.88,10Zm-21,0a5.41,5.41,0,0,1,0-8.2A7.21,7.21,0,0,1,7,0h44.3a7.25,7.25,0,0,1,5.15,1.76,5.41,5.41,0,0,1,0,8.2,7.25,7.25,0,0,1-5.15,1.76H7A7.21,7.21,0,0,1,1.88,10Zm21,90a5.41,5.41,0,0,1,0-8.2A7.21,7.21,0,0,1,28,90h21.8A7.25,7.25,0,0,1,55,91.76a5.41,5.41,0,0,1,0,8.2,7.25,7.25,0,0,1-5.15,1.76H28A7.21,7.21,0,0,1,22.88,100Zm6,0a5.41,5.41,0,0,1,0-8.2A7.21,7.21,0,0,1,34,90h21.8A7.25,7.25,0,0,1,61,91.76a5.41,5.41,0,0,1,0,8.2,7.25,7.25,0,0,1-5.15,1.76H34A7.21,7.21,0,0,1,28.88,100ZM30.2,25a5.86,5.86,0,0,1,4.28-10h8.9a5.84,5.84,0,0,1,4.28,10,5.71,5.71,0,0,1-4.28,1.76h-8.9A5.71,5.71,0,0,1,30.2,25Zm0,15a5.86,5.86,0,0,1,4.28-10h8.9a5.86,5.86,0,1,1,0,11.72h-8.9A5.71,5.71,0,0,1,30.2,40Zm7.18,15a5.41,5.41,0,0,1,0-8.2A7.21,7.21,0,0,1,42.53,45h21.8a7.25,7.25,0,0,1,5.15,1.76,5.41,5.41,0,0,1,0,8.2,7.25,7.25,0,0,1-5.15,1.76H42.53A7.21,7.21,0,0,1,37.38,55Zm-13,0a5.41,5.41,0,0,1,0-8.2A7.21,7.21,0,0,1,29.53,45h21.8a7.25,7.25,0,0,1,5.15,1.76,5.41,5.41,0,0,1,0,8.2,7.25,7.25,0,0,1-5.15,1.76H29.53A7.21,7.21,0,0,1,24.38,55ZM30.2,70a5.86,5.86,0,0,1,4.28-10h8.9a5.86,5.86,0,1,1,0,11.72h-8.9A5.71,5.71,0,0,1,30.2,70Zm5,15a5.86,5.86,0,0,1,4.28-10h8.9a5.86,5.86,0,1,1,0,11.72h-8.9A5.71,5.71,0,0,1,35.2,85Zm25-60a5.86,5.86,0,0,1,4.28-10h8.9a5.84,5.84,0,0,1,4.28,10,5.71,5.71,0,0,1-4.28,1.76h-8.9A5.71,5.71,0,0,1,60.2,25Zm10,0a5.86,5.86,0,0,1,4.28-10h8.9a5.84,5.84,0,0,1,4.28,10,5.71,5.71,0,0,1-4.28,1.76h-8.9A5.71,5.71,0,0,1,70.2,25Z"/></g></g></svg>