<svg xmlns="http://www.w3.org/2000/svg" viewBox="0 0 82.86 101.72"><g id="Layer_2" data-name="Layer 2"><g id="Layer_1-2" data-name="Layer 1"><path d="M18.88,10a5.41,5.41,0,0,1,0-8.2A7.21,7.21,0,0,1,24,0h36.8A7.25,7.25,0,0,1,66,1.76,5.41,5.41,0,0,1,66,10a7.25,7.25,0,0,1-5.15,1.76H24A7.21,7.21,0,0,1,18.88,10Zm-17,0a5.41,5.41,0,0,1,0-8.2A7.21,7.21,0,0,1,7,0h36.8A7.25,7.25,0,0,1,49,1.76,5.41,5.41,0,0,1,49,10a7.25,7.25,0,0,1-5.15,1.76H7A7.21,7.21,0,0,1,1.88,10Zm17,90a5.41,5.41,0,0,1,0-8.2A7.21,7.21,0,0,1,24,90h36.8A7.25,7.25,0,0,1,66,91.76a5.41,5.41,0,0,1,0,8.2,7.25,7.25,0,0,1-5.15,1.76H24A7.21,7.21,0,0,1,18.88,100Zm15,0a5.41,5.41,0,0,1,0-8.2A7.21,7.21,0,0,1,39,90h36.8A7.25,7.25,0,0,1,81,91.76a5.41,5.41,0,0,1,0,8.2,7.25,7.25,0,0,1-5.15,1.76H39A7.21,7.21,0,0,1,33.88,100ZM33.7,25A5.86,5.86,0,0,1,38,15h8.9a5.84,5.84,0,0,1,4.28,10,5.71,5.71,0,0,1-4.28,1.76H38A5.71,5.71,0,0,1,33.7,25Zm-3,15A5.86,5.86,0,0,1,35,30h8.9a5.86,5.86,0,1,1,0,11.72H35A5.71,5.71,0,0,1,30.7,40Zm3,15A5.86,5.86,0,0,1,38,45h8.9a5.86,5.86,0,1,1,0,11.72H38A5.71,5.71,0,0,1,33.7,55Zm5,15A5.86,5.86,0,0,1,43,60h8.9a5.86,5.86,0,1,1,0,11.72H43A5.71,5.71,0,0,1,38.7,70Zm-5,15A5.86,5.86,0,0,1,38,75h8.9a5.86,5.86,0,1,1,0,11.72H38A5.71,5.71,0,0,1,33.7,85Z"/></g></g></svg>