<svg id="Layer_1" data-name="Layer 1" xmlns="http://www.w3.org/2000/svg" viewBox="0 0 1366 768"><defs><style>.cls-1{fill:none;stroke:#000;stroke-miterlimit:10;stroke-width:10px;}</style></defs><path d="M655,238.79A206.89,206.89,0,1,1,574.2,255.1,206.38,206.38,0,0,1,655,238.79m0-10c-120.18,0-217.61,97.43-217.61,217.61S534.83,664,655,664,872.62,566.59,872.62,446.4,775.2,228.79,655,228.79Z"/><circle cx="655.01" cy="446.4" r="125.73"/><path d="M655,325.67A120.73,120.73,0,1,1,569.64,361,119.94,119.94,0,0,1,655,325.67m0-10A130.74,130.74,0,1,0,785.74,446.4,130.73,130.73,0,0,0,655,315.67Z"/><path class="cls-1" d="M190,544.87,446.5,240.38l417-17.38L1240,342.15"/></svg>